<?xml version="1.0" encoding="utf-8"?>
<!-- Generator: Adobe Illustrator 25.4.8, SVG Export Plug-In . SVG Version: 6.00 Build 0)  -->
<svg version="1.1" xmlns="http://www.w3.org/2000/svg" xmlns:xlink="http://www.w3.org/1999/xlink" x="0px" y="0px"
	 viewBox="0 0 50 30" style="enable-background:new 0 0 50 30;" xml:space="preserve">
<g id="Layer_2">
	<text transform="matrix(1 0 0 1 4.6455 25.9046)" style="font-family:'SFWonderComic'; font-size:5.6993px;">Doggie’s Elysium</text>
</g>
<g id="Layer_1">
	<path style="fill:#28B9E1;" d="M31.69,2.43c-1.89,0-3.04,0.36-3.71,0.67c-0.85-0.42-1.82-0.67-2.93-0.67
		c-1.11,0-2.08,0.25-2.93,0.67c-0.66-0.31-1.81-0.67-3.71-0.67c-3.32,0-5.53,8.85-5.53,11.06c0,0.92,1.46,1.76,3.47,2.1
		c0.71,2.48,4.05,4.37,8.14,4.53v-4.73c-0.65-0.41-1.66-1.15-1.66-1.9c0-1.11,2.21-1.11,2.21-1.11s2.21,0,2.21,1.11
		c0,0.75-1.01,1.49-1.66,1.9v4.73c4.09-0.17,7.43-2.06,8.14-4.53c2.01-0.34,3.47-1.18,3.47-2.1C37.22,11.28,35,2.43,31.69,2.43
		 M16.37,13.34c-0.55-0.13-0.98-0.29-1.27-0.41c0.28-3.06,2.43-7.85,3.37-8.3c0.6,0,1.05,0.07,1.46,0.12
		C17.61,7.32,16.69,11.32,16.37,13.34 M21.73,11.28c-0.61,0-1.11-0.5-1.11-1.11c0-0.6,0.5-1.11,1.11-1.11c0.61,0,1.11,0.5,1.11,1.11
		C22.84,10.79,22.34,11.28,21.73,11.28 M28.37,11.28c-0.61,0-1.11-0.5-1.11-1.11c0-0.6,0.5-1.11,1.11-1.11
		c0.61,0,1.11,0.5,1.11,1.11C29.47,10.79,28.98,11.28,28.37,11.28 M33.73,13.34c-0.32-2.02-1.24-6.03-3.56-8.58
		c0.41-0.06,0.86-0.12,1.46-0.12c0.94,0.44,3.1,5.23,3.37,8.3C34.73,13.06,34.3,13.21,33.73,13.34z"/>
</g>
</svg>
